<svg width="12" height="12" viewBox="0 0 12 12" fill="none" xmlns="http://www.w3.org/2000/svg">
<circle cx="6" cy="6" r="6" fill="#E9EBEF"/>
<path d="M5.24804 7.14427C5.24804 6.85376 5.33731 6.57646 5.51586 6.31236C5.70126 6.04826 5.9004 5.83698 6.11328 5.67852C6.32616 5.51346 6.52186 5.32199 6.7004 5.1041C6.88581 4.88622 6.97852 4.66834 6.97852 4.45046C6.97852 4.21937 6.89611 4.04111 6.73131 3.91566C6.5665 3.79021 6.33646 3.72749 6.04118 3.72749C5.46435 3.72749 5.05577 4.0213 4.81543 4.60892L3.59998 3.93547C3.80598 3.44688 4.13216 3.07054 4.57852 2.80644C5.03174 2.53574 5.53646 2.40039 6.09268 2.40039C6.71757 2.40039 7.25663 2.57536 7.70985 2.92529C8.16993 3.26862 8.39998 3.74399 8.39998 4.35142C8.39998 4.62873 8.33817 4.88622 8.21457 5.12391C8.09783 5.3616 7.95362 5.56628 7.78195 5.73794C7.61714 5.903 7.4489 6.06146 7.27723 6.21332C7.11242 6.35857 6.96822 6.51043 6.84461 6.66889C6.72787 6.82735 6.6695 6.98581 6.6695 7.14427H5.24804ZM6.5768 9.3528C6.40513 9.51786 6.19912 9.60039 5.95877 9.60039C5.71843 9.60039 5.51242 9.51786 5.34075 9.3528C5.16907 9.18774 5.08324 8.98966 5.08324 8.75857C5.08324 8.52749 5.16907 8.32941 5.34075 8.16435C5.51242 7.99929 5.71843 7.91676 5.95877 7.91676C6.19912 7.91676 6.40513 7.99929 6.5768 8.16435C6.74847 8.32941 6.83431 8.52749 6.83431 8.75857C6.83431 8.98966 6.74847 9.18774 6.5768 9.3528Z" fill="#667085"/>
</svg>
