<svg width="46" height="46" viewBox="0 0 46 46" fill="none" xmlns="http://www.w3.org/2000/svg">
<path d="M3 23C3 11.9543 11.9543 3 23 3V3C34.0457 3 43 11.9543 43 23V23C43 34.0457 34.0457 43 23 43V43C11.9543 43 3 34.0457 3 23V23Z" fill="#F2F4F7"/>
<g clip-path="url(#clip0_7601_73536)">
<path d="M26.3326 26.3332L22.9992 22.9999M22.9992 22.9999L19.6659 26.3332M22.9992 22.9999V30.4999M29.9909 28.3249C30.8037 27.8818 31.4458 27.1806 31.8158 26.3321C32.1858 25.4835 32.2627 24.5359 32.0344 23.6388C31.8061 22.7417 31.2855 21.9462 30.5548 21.3778C29.8241 20.8094 28.925 20.5005 27.9992 20.4999H26.9492C26.697 19.5243 26.2269 18.6185 25.5742 17.8507C24.9215 17.0829 24.1033 16.4731 23.181 16.0671C22.2587 15.661 21.2564 15.4694 20.2493 15.5065C19.2423 15.5436 18.2568 15.8085 17.3669 16.2813C16.477 16.7541 15.7058 17.4225 15.1114 18.2362C14.517 19.05 14.1148 19.9879 13.9351 20.9794C13.7553 21.9709 13.8027 22.9903 14.0736 23.961C14.3445 24.9316 14.8319 25.8281 15.4992 26.5832" stroke="#475467" stroke-width="1.66667" stroke-linecap="round" stroke-linejoin="round"/>
</g>
<path d="M23 40C13.6112 40 6 32.3888 6 23H0C0 35.7025 10.2975 46 23 46V40ZM40 23C40 32.3888 32.3888 40 23 40V46C35.7025 46 46 35.7025 46 23H40ZM23 6C32.3888 6 40 13.6112 40 23H46C46 10.2975 35.7025 0 23 0V6ZM23 0C10.2975 0 0 10.2975 0 23H6C6 13.6112 13.6112 6 23 6V0Z" fill="#F9FAFB"/>
<defs>
<clipPath id="clip0_7601_73536">
<rect width="20" height="20" fill="white" transform="translate(13 13)"/>
</clipPath>
</defs>
</svg>
