<svg width="13" height="12" viewBox="0 0 13 12" fill="none" xmlns="http://www.w3.org/2000/svg">
<path d="M4.08967 11.6876C8.99412 11.6876 11.6774 7.31064 11.6774 3.51615C11.6774 3.3931 11.6749 3.26732 11.6698 3.14427C12.1918 2.73775 12.6422 2.23421 13 1.65732C12.5139 1.89024 11.9977 2.04237 11.4692 2.10849C12.0257 1.74926 12.4424 1.18492 12.642 0.520092C12.1185 0.85422 11.5459 1.08992 10.9489 1.21708C10.5467 0.756805 10.0149 0.452046 9.43566 0.349924C8.85646 0.247803 8.26215 0.354007 7.74461 0.652117C7.22707 0.950227 6.81514 1.42364 6.5725 1.99916C6.32986 2.57468 6.27002 3.22025 6.40225 3.83607C5.34218 3.77878 4.30513 3.48222 3.35832 2.96562C2.41151 2.44902 1.57608 1.7239 0.906191 0.837279C0.565716 1.46945 0.461531 2.21752 0.614808 2.92945C0.768086 3.64137 1.16733 4.26374 1.73139 4.67005C1.30792 4.65557 0.893737 4.53279 0.523047 4.31185V4.3474C0.522668 5.01082 0.735636 5.6539 1.12575 6.16734C1.51587 6.68078 2.05905 7.03289 2.66297 7.1638C2.2707 7.27939 1.85899 7.29623 1.45971 7.21302C1.63012 7.78357 1.96169 8.28258 2.40813 8.64042C2.85457 8.99826 3.39361 9.19708 3.95002 9.20911C3.0054 10.0082 1.83851 10.4416 0.637305 10.4396C0.424281 10.4392 0.211466 10.4252 0 10.3975C1.2203 11.2406 2.63983 11.6884 4.08967 11.6876Z" fill="#98A2B3"/>
</svg>
