<svg width="150" height="20" viewBox="0 0 150 20" fill="none" xmlns="http://www.w3.org/2000/svg">
<g clip-path="url(#clip0_6363_60001)">
<path d="M34.6367 7.16268V19.6032H31.3304V18.6508C30.215 19.5436 28.8406 20 27.2074 20C25.5542 20 24.1202 19.3849 22.9052 18.1349C21.6902 16.8849 21.0728 15.3174 21.0728 13.4127C21.0728 11.5079 21.6902 9.94046 22.9052 8.69046C24.1401 7.44046 25.5542 6.80554 27.2074 6.80554C28.8606 6.80554 30.2349 7.26189 31.3304 8.17459V7.18253H34.6367V7.16268ZM27.785 17.123C28.7211 17.123 29.5378 16.7857 30.2548 16.0913C30.9718 15.3968 31.3304 14.504 31.3304 13.4127C31.3304 12.3214 30.9718 11.4087 30.2548 10.7143C29.5378 10.0198 28.7012 9.66269 27.785 9.66269C26.7692 9.66269 25.9327 9.99999 25.2754 10.6944C24.6181 11.369 24.2795 12.2817 24.2795 13.4127C24.2795 14.5436 24.6181 15.4365 25.2754 16.1111C25.9127 16.7857 26.7493 17.123 27.785 17.123Z" fill="black"/>
<path d="M43.9187 7.00397C44.2971 7.00397 44.5959 7.04365 44.795 7.10317L44.6158 10.2778H43.8988C40.931 10.2778 39.4372 12.0635 39.4372 15.6151V19.623H36.1309V7.1627H39.4372V9.4246C40.5725 7.81746 42.0663 7.00397 43.9187 7.00397Z" fill="black"/>
<path d="M46.2887 2.91665C46.6671 2.51982 47.1451 2.32141 47.7228 2.32141C48.2804 2.32141 48.7585 2.51982 49.1568 2.91665C49.5353 3.31347 49.7344 3.76982 49.7344 4.30554C49.7344 4.86109 49.5353 5.31744 49.1568 5.67459C48.7784 6.03173 48.3004 6.23014 47.7228 6.23014C47.1451 6.23014 46.6671 6.05157 46.2887 5.67459C45.9102 5.31744 45.731 4.86109 45.731 4.30554C45.7111 3.76982 45.8903 3.31347 46.2887 2.91665Z" fill="#D32A8F"/>
<path d="M49.3561 7.16272H46.0498V19.6032H49.3561V7.16272Z" fill="black"/>
<path d="M10.0386 3.51188V5.39681H20.9933V3.33331H10.2178H10.0386V3.51188Z" fill="#D32A8F"/>
<path d="M10.0186 3.33333C6.33382 3.35317 3.36609 6.32936 3.36609 10C3.36609 13.6706 6.35374 16.6667 10.0584 16.6667C13.7631 16.6667 16.7308 13.6706 16.7308 10H10.0385V6.66667H21.0131V10H20.077C20.077 15.5159 15.5756 20 10.0385 20C4.5014 20 0 15.5159 0 10C0 4.48413 4.5014 0 10.0385 0V3.29365V3.31349L10.0186 3.33333Z" fill="black"/>
<path d="M66.6049 13.5913L68.5767 14.0675C67.5012 17.6984 64.2745 19.9603 60.271 19.9603C55.192 19.9603 51.2085 15.9921 51.2085 10.9326C51.2085 5.87304 55.192 1.90479 60.271 1.90479C64.2745 1.90479 67.5211 4.16669 68.5767 7.65875L66.6049 8.23415C65.7285 5.43653 63.2985 3.82939 60.271 3.82939C56.3672 3.82939 53.2799 6.92463 53.2799 10.9326C53.2799 14.9207 56.3473 18.0357 60.271 18.0357C63.2985 18.0357 65.6886 16.4484 66.6049 13.5913Z" fill="black"/>
<path d="M83.674 13.2143C83.674 17.1428 80.6465 19.9405 76.8821 19.9405C73.0579 19.9405 70.0503 17.1428 70.0503 13.2143C70.0503 9.2857 73.0379 6.54761 76.8821 6.54761C80.6465 6.54761 83.674 9.2857 83.674 13.2143ZM81.722 13.2143C81.722 10.2778 79.5112 8.2738 76.8821 8.2738C74.233 8.2738 71.9823 10.2778 71.9823 13.2143C71.9823 16.1706 74.2131 18.1944 76.8821 18.1944C79.5112 18.1944 81.722 16.1706 81.722 13.2143Z" fill="black"/>
<path d="M97.1385 11.9643V19.623H95.1666V12.3214C95.1666 9.94047 93.7326 8.33333 91.6014 8.33333C88.9125 8.33333 87.1398 10.1587 87.1398 13.4722V19.623H85.168V6.8254H87.1398V8.94841C88.1755 7.40079 89.8287 6.50793 91.9798 6.50793C95.067 6.50793 97.1385 8.73016 97.1385 11.9643Z" fill="black"/>
<path d="M110.583 11.9643V19.623H108.611V12.3214C108.611 9.94047 107.177 8.33333 105.046 8.33333C102.357 8.33333 100.584 10.1587 100.584 13.4722V19.623H98.5923V6.8254H100.564V8.94841C101.6 7.40079 103.253 6.50793 105.404 6.50793C108.531 6.50793 110.583 8.73016 110.583 11.9643Z" fill="black"/>
<path d="M125.003 13.6309H113.989C114.168 16.5079 116.359 18.2341 118.57 18.2341C120.402 18.2341 122.035 17.5397 122.952 15.4762L124.724 15.8928C123.708 18.5714 121.478 19.9603 118.57 19.9603C115.164 19.9603 112.057 17.3413 112.057 13.2738C112.057 9.16666 115.164 6.52777 118.709 6.52777C122.175 6.52777 124.884 9.08729 125.023 12.9167V13.6309H125.003ZM114.068 12.1428H123.011C122.653 9.62301 120.84 8.25396 118.709 8.25396C116.618 8.25396 114.447 9.62301 114.068 12.1428Z" fill="black"/>
<path d="M137.412 15.2381L139.244 15.7341C138.547 18.3532 136.018 19.9603 133.169 19.9603C129.544 19.9603 126.477 17.3214 126.477 13.2341C126.477 9.20635 129.544 6.50793 133.169 6.50793C135.978 6.50793 138.487 8.13492 139.264 10.7738L137.372 11.3492C136.794 9.38492 135.081 8.33333 133.169 8.33333C130.54 8.33333 128.409 10.2976 128.409 13.2341C128.409 16.2103 130.54 18.1151 133.169 18.1151C135.081 18.1151 136.794 17.1627 137.412 15.2381Z" fill="black"/>
<path d="M150 18.9484C148.964 19.6825 148.068 19.9603 147.032 19.9603C144.483 19.9603 142.79 18.4524 142.79 15.6349V8.49206H140.001V6.8254H142.79V2.75793H144.802V6.8254H149.383V8.49206H144.802V15.496C144.802 17.1627 145.738 18.0952 147.172 18.0952C147.909 18.0952 148.705 17.7778 149.363 17.3214L150 18.9484Z" fill="black"/>
</g>
<defs>
<clipPath id="clip0_6363_60001">
<rect width="150" height="20" fill="white"/>
</clipPath>
</defs>
</svg>
