<svg width="13" height="14" viewBox="0 0 13 14" fill="none" xmlns="http://www.w3.org/2000/svg">
<path d="M12.0377 0H0.959766C0.429102 0 0 0.451172 0 1.00898V12.9883C0 13.5461 0.429102 14 0.959766 14H12.0377C12.5684 14 13 13.5461 13 12.991V1.00898C13 0.451172 12.5684 0 12.0377 0ZM3.85684 11.9301H1.92715V5.24726H3.85684V11.9301ZM2.89199 4.33672C2.27246 4.33672 1.77227 3.79805 1.77227 3.13359C1.77227 2.46914 2.27246 1.93047 2.89199 1.93047C3.50898 1.93047 4.00918 2.46914 4.00918 3.13359C4.00918 3.79531 3.50898 4.33672 2.89199 4.33672ZM11.0779 11.9301H9.15078V8.68164C9.15078 7.90781 9.13809 6.90977 8.14785 6.90977C7.14492 6.90977 6.99258 7.75469 6.99258 8.62695V11.9301H5.06797V5.24726H6.91641V6.16055H6.9418C7.19824 5.63555 7.82793 5.08047 8.76484 5.08047C10.7174 5.08047 11.0779 6.46406 11.0779 8.26328V11.9301Z" fill="#98A2B3"/>
</svg>
