<svg width="18" height="21" viewBox="0 0 18 21" fill="none" xmlns="http://www.w3.org/2000/svg">
<path d="M1 19.705V2.02112C1 1.46414 1.46415 1 2.02112 1H7.03388C7.86934 1 8.70481 1.3249 9.30819 1.92829L16.224 8.56556C16.5953 8.93688 16.7809 9.40102 16.7809 9.91158V12.3716C16.7809 13.4855 16.2704 14.553 15.3885 15.2028L14.4138 15.9455C13.9496 16.2704 13.5783 16.6881 13.207 17.1522L12.2323 18.4054C11.5361 19.2409 10.515 19.7515 9.44744 19.7515H1V19.705Z" stroke="black" stroke-miterlimit="10"/>
<path d="M2.25195 9.26132V3.45951C2.25195 2.99537 2.62327 2.57764 3.13383 2.57764H6.66133C7.58962 2.57764 8.51791 2.94895 9.16771 3.64517L14.5518 9.02925C14.6446 9.12208 14.5982 9.26132 14.459 9.26132H2.25195Z" stroke="black" stroke-miterlimit="10"/>
<path d="M13.8111 12.2319H12.0937C11.676 12.2319 11.3047 11.907 11.3047 11.4429C11.3047 11.0251 11.6296 10.6538 12.0937 10.6538H13.8111C14.2288 10.6538 14.6001 10.9787 14.6001 11.4429C14.6001 11.8606 14.2288 12.2319 13.8111 12.2319Z" stroke="black" stroke-miterlimit="10"/>
<path d="M10.4688 4.94482V9.30779" stroke="black" stroke-miterlimit="10"/>
</svg>
