<svg width="31" height="31" viewBox="0 0 31 31" fill="none" xmlns="http://www.w3.org/2000/svg">
<rect width="31" height="31" rx="4" fill="white"/>
<path d="M14.9814 7.84053V9.96866H27.1023V7.63892H15.1798H14.9814V7.84053Z" fill="#D32A8F"/>
<path d="M14.9601 7.63844C10.8831 7.66084 7.59941 11.021 7.59941 15.1653C7.59941 19.3096 10.9051 22.6922 15.0041 22.6922C19.1032 22.6922 22.3868 19.3096 22.3868 15.1653H14.9821V11.4019H27.125V15.1653H26.0892C26.0892 21.3929 21.1086 26.4556 14.9821 26.4556C8.85557 26.4556 3.875 21.3929 3.875 15.1653C3.875 8.93772 8.85557 3.875 14.9821 3.875V7.59363V7.61603L14.9601 7.63844Z" fill="black"/>
</svg>
