<svg width="19" height="21" viewBox="0 0 19 21" fill="none" xmlns="http://www.w3.org/2000/svg">
<path d="M8.65965 13.2999C8.65965 12.7429 7.82419 10.9328 7.5457 10.3294C7.49929 10.2366 7.40645 10.2366 7.36004 10.3294C7.08155 10.9328 6.24609 12.7429 6.24609 13.2999C6.24609 13.9961 6.80307 14.5531 7.49928 14.5531C8.1955 14.5531 8.65965 13.9497 8.65965 13.2999Z" stroke="black" stroke-miterlimit="10"/>
<path d="M12.6488 2.16036V17.4307H2.25195V2.16036C2.25195 1.51056 2.76251 1 3.41232 1H11.4884C12.0918 1 12.6488 1.51056 12.6488 2.16036Z" stroke="black" stroke-miterlimit="10"/>
<path d="M9.91119 7.54425H4.99125C4.52711 7.54425 4.10938 7.17294 4.10938 6.66238V3.83109C4.10938 3.36695 4.4807 2.94922 4.99125 2.94922H9.91119C10.3753 2.94922 10.7931 3.32053 10.7931 3.83109V6.66238C10.7931 7.17294 10.3753 7.54425 9.91119 7.54425Z" stroke="black" stroke-miterlimit="10"/>
<path d="M13.8568 17.9876V19.1944C13.8568 19.4729 13.6247 19.7514 13.2998 19.7514H1.55697C1.27849 19.7514 1 19.5193 1 19.1944V17.9876C1 17.7091 1.23207 17.4307 1.55697 17.4307H13.2998C13.5783 17.4307 13.8568 17.6627 13.8568 17.9876Z" stroke="black" stroke-miterlimit="10"/>
<path d="M15.573 4.9917L17.1975 7.91581L17.8937 9.21542V10.8863V13.8569C17.8937 14.3674 17.7081 14.7852 17.3832 15.1565C17.0583 15.4814 16.5941 15.667 16.0836 15.667C15.0625 15.667 14.2734 14.878 14.2734 13.8569V8.79769C14.2734 8.00864 13.67 7.40525 12.881 7.40525H12.6953" stroke="black" stroke-miterlimit="10" stroke-linecap="round"/>
<path d="M17.8951 9.16875V10.8397C17.8487 10.8397 17.8022 10.8397 17.7094 10.8397C16.874 10.8397 16.1777 10.1435 16.1777 9.30799C16.1777 8.65819 16.5955 8.10121 17.1524 7.86914L17.8951 9.16875Z" stroke="black" stroke-miterlimit="10" stroke-linecap="round"/>
</svg>
