<svg width="17" height="21" viewBox="0 0 17 21" fill="none" xmlns="http://www.w3.org/2000/svg">
<path d="M15.6663 4.71316C15.6663 4.75957 15.6663 4.75957 15.6663 4.71316C15.5735 4.80599 15.527 4.80599 15.4806 4.8524C15.2021 4.99165 14.8308 4.94523 14.5523 4.71316L12.1852 2.34602C12.046 2.20678 11.9531 2.02112 11.9531 1.78905C11.9531 1.6498 11.9995 1.51056 12.046 1.41773C12.0924 1.37132 12.1388 1.27849 12.1852 1.23207C12.3244 1.09283 12.5101 1 12.7422 1C12.9278 1 13.1599 1.09283 13.2991 1.23207L15.6663 3.59921C15.9912 3.92411 15.9912 4.43467 15.6663 4.71316Z" stroke="black" stroke-miterlimit="10"/>
<path d="M10.1437 1.69629L15.5277 7.08037V9.86524V13.2071V18.127C15.5277 19.0553 14.7851 19.7979 13.8568 19.7979H2.67092C1.74263 19.7979 1 19.0553 1 18.127V13.2071V9.86524V3.36721C1 2.43892 1.74263 1.69629 2.67092 1.69629H10.1437Z" stroke="black" stroke-miterlimit="10"/>
<path d="M2.57812 8.00861V4.38828C2.57812 3.8313 2.99585 3.41357 3.55283 3.41357H7.31241L2.57812 8.00861Z" stroke="black" stroke-miterlimit="10"/>
<path d="M11.027 13.9032C11.027 12.7429 9.26326 8.9369 8.65987 7.63729C8.56704 7.45163 8.33497 7.45163 8.24214 7.63729C7.63875 8.9369 5.875 12.7429 5.875 13.9032C5.875 15.3421 7.03537 16.5025 8.47421 16.5025C9.91306 16.5025 11.027 15.2957 11.027 13.9032Z" stroke="black" stroke-miterlimit="10"/>
<path d="M15.5279 9.86523H9.67969" stroke="black" stroke-miterlimit="10"/>
<path d="M7.17163 9.86523H1.04492" stroke="black" stroke-miterlimit="10"/>
<path d="M5.91844 13.207H1.04492" stroke="black" stroke-miterlimit="10"/>
<path d="M15.5282 13.207H10.8867" stroke="black" stroke-miterlimit="10"/>
<path d="M13.7646 3.92383L13.0684 4.57363" stroke="black" stroke-miterlimit="10"/>
<path d="M12.8368 2.99561L12.1406 3.69182" stroke="black" stroke-miterlimit="10"/>
</svg>
