<svg width="13" height="12" viewBox="0 0 13 12" fill="none" xmlns="http://www.w3.org/2000/svg">
<path d="M3.62502 1.16085C3.35159 0.61166 2.93215 0.66028 2.50841 0.66028C1.75113 0.66028 0.570312 1.56737 0.570312 3.25555C0.570313 4.6391 1.17998 6.15361 3.23434 8.41918C5.21696 10.6056 7.822 11.7367 9.98466 11.6982C12.1473 11.6597 12.5923 9.79862 12.5923 9.17013C12.5923 8.89157 12.4194 8.75258 12.3003 8.71481C11.5633 8.36112 10.2041 7.70209 9.89482 7.57827C9.58554 7.45445 9.42406 7.62193 9.32367 7.71304C9.0432 7.98032 8.48724 8.76801 8.29688 8.94518C8.10653 9.12235 7.82273 9.03269 7.70463 8.96571C7.27003 8.79132 6.09169 8.26718 5.15242 7.35667C3.9908 6.23062 3.92263 5.8432 3.70378 5.49834C3.52869 5.22245 3.65717 5.05318 3.72128 4.97921C3.97156 4.69042 4.31714 4.24458 4.47212 4.02301C4.62709 3.80145 4.50406 3.46506 4.43024 3.25555C4.11274 2.35449 3.84376 1.6002 3.62502 1.16085Z" fill="#101828"/>
</svg>
