<svg width="17" height="21" viewBox="0 0 17 21" fill="none" xmlns="http://www.w3.org/2000/svg">
<path d="M9.25084 5.03806H7.34785C6.28031 5.03806 5.39844 4.15619 5.39844 3.08865V2.94941C5.39844 1.88188 6.28031 1 7.34785 1H9.25084C10.3184 1 11.2002 1.88188 11.2002 2.94941V3.08865C11.2002 4.15619 10.3184 5.03806 9.25084 5.03806Z" stroke="black" stroke-miterlimit="10"/>
<path d="M13.4271 7.91578V14.321C13.0093 14.5995 12.5916 15.0636 12.2667 15.667C12.1739 15.8527 12.081 16.0383 11.9882 16.224C11.0135 15.667 9.7139 15.2957 8.27506 15.2957C6.83621 15.2957 5.5366 15.667 4.5619 16.224C4.46907 16.0383 4.37624 15.8527 4.28341 15.667C3.95851 15.0636 3.54078 14.5995 3.12305 14.321V7.91578C3.12305 6.33769 4.42265 5.03809 6.00075 5.03809H10.5958C12.1739 5.03809 13.4271 6.33769 13.4271 7.91578Z" stroke="black" stroke-miterlimit="10"/>
<path d="M15.2848 17.9412C15.0527 18.6374 14.7278 19.2872 14.3565 19.7513H2.19593C1.82462 19.2872 1.49972 18.6374 1.26764 17.9412C1.03557 17.1521 0.942743 16.3631 1.03557 15.7133C1.1284 14.9242 1.4533 14.3208 2.01028 14.1352C2.38159 14.0424 2.75291 14.1352 3.12422 14.3673C3.54195 14.6457 3.95969 15.1099 4.28459 15.7133C4.37742 15.8989 4.47024 16.0846 4.56307 16.2702C5.53778 15.7133 6.83738 15.342 8.27623 15.342C9.71508 15.342 11.0147 15.7133 11.9894 16.2702C12.0822 16.0846 12.175 15.8989 12.2679 15.7133C12.5928 15.1099 13.0105 14.6457 13.4282 14.3673C13.7996 14.1352 14.2173 14.0424 14.5422 14.1352C15.0992 14.3208 15.4241 14.9242 15.5169 15.7133C15.6097 16.3167 15.5633 17.1057 15.2848 17.9412Z" stroke="black" stroke-miterlimit="10"/>
<path d="M11.0627 8.24023C11.0627 8.24023 9.20611 10.4681 9.34535 13.9956" stroke="black" stroke-miterlimit="10" stroke-linecap="round"/>
<path d="M5.49219 8.24023C5.49219 8.24023 7.34877 10.4681 7.20952 13.9956" stroke="black" stroke-miterlimit="10" stroke-linecap="round"/>
</svg>
