<svg width="20" height="19" viewBox="0 0 20 19" fill="none" xmlns="http://www.w3.org/2000/svg">
<path d="M9.09748 0.891367C9.45972 0.132245 10.5403 0.132245 10.9025 0.891366L12.9344 5.14956C13.0802 5.45507 13.3706 5.66609 13.7063 5.71033L18.3839 6.32693C19.2178 6.43686 19.5517 7.46453 18.9417 8.04362L15.5198 11.2919C15.2743 11.525 15.1634 11.8664 15.225 12.1993L16.0841 16.8386C16.2372 17.6656 15.363 18.3008 14.6238 17.8995L10.477 15.6489C10.1795 15.4874 9.8205 15.4874 9.52298 15.6489L5.37623 17.8995C4.63698 18.3008 3.76278 17.6656 3.91593 16.8386L4.77499 12.1993C4.83662 11.8664 4.72568 11.525 4.48017 11.2919L1.05828 8.04362C0.448251 7.46453 0.782163 6.43686 1.61607 6.32693L6.29375 5.71033C6.62935 5.66609 6.91979 5.45507 7.06557 5.14956L9.09748 0.891367Z" fill="#FFC700"/>
</svg>
