<svg width="15" height="14" viewBox="0 0 15 14" fill="none" xmlns="http://www.w3.org/2000/svg">
<path d="M4.71885 13.5005C10.3778 13.5005 13.4739 8.49829 13.4739 4.16173C13.4739 4.0211 13.471 3.87735 13.4651 3.73673C14.0674 3.27213 14.5872 2.69666 15 2.03735C14.4391 2.30355 13.8435 2.47741 13.2337 2.55298C13.8758 2.14243 14.3566 1.49747 14.5869 0.737666C13.9828 1.11953 13.3222 1.3889 12.6334 1.53423C12.1693 1.0082 11.5556 0.659899 10.8873 0.543189C10.219 0.426479 9.53324 0.547855 8.93609 0.888553C8.33893 1.22925 7.86363 1.77029 7.58365 2.42803C7.30368 3.08577 7.23464 3.82356 7.38721 4.52735C6.16406 4.46188 4.96746 4.12296 3.87499 3.53255C2.78252 2.94215 1.81856 2.11345 1.04561 1.10017C0.65275 1.82265 0.532535 2.67758 0.709394 3.49122C0.886253 4.30485 1.34691 5.01612 1.99775 5.48048C1.50914 5.46393 1.03123 5.32361 0.603516 5.0711V5.11173C0.603078 5.86992 0.848811 6.60488 1.29894 7.19167C1.74908 7.77846 2.37583 8.18086 3.07266 8.33048C2.62003 8.46257 2.14499 8.48182 1.68428 8.38673C1.88091 9.03878 2.26348 9.60908 2.77861 10.018C3.29373 10.427 3.9157 10.6542 4.55771 10.668C3.46777 11.5812 2.12136 12.0766 0.735352 12.0742C0.489554 12.0738 0.243999 12.0578 0 12.0261C1.40804 12.9897 3.04596 13.5014 4.71885 13.5005Z" fill="#98A2B3"/>
</svg>
