<svg width="16" height="12" viewBox="0 0 16 12" fill="none" xmlns="http://www.w3.org/2000/svg">
<path d="M15.8406 2.8002C15.8406 2.8002 15.6844 1.69707 15.2031 1.2127C14.5938 0.575195 13.9125 0.57207 13.6 0.53457C11.3625 0.37207 8.00313 0.37207 8.00313 0.37207H7.99687C7.99687 0.37207 4.6375 0.37207 2.4 0.53457C2.0875 0.57207 1.40625 0.575195 0.796875 1.2127C0.315625 1.69707 0.1625 2.8002 0.1625 2.8002C0.1625 2.8002 0 4.09707 0 5.39082V6.60332C0 7.89707 0.159375 9.19395 0.159375 9.19395C0.159375 9.19395 0.315625 10.2971 0.79375 10.7814C1.40313 11.4189 2.20313 11.3971 2.55938 11.4658C3.84063 11.5877 8 11.6252 8 11.6252C8 11.6252 11.3625 11.6189 13.6 11.4596C13.9125 11.4221 14.5938 11.4189 15.2031 10.7814C15.6844 10.2971 15.8406 9.19395 15.8406 9.19395C15.8406 9.19395 16 7.9002 16 6.60332V5.39082C16 4.09707 15.8406 2.8002 15.8406 2.8002ZM6.34688 8.0752V3.57832L10.6687 5.83457L6.34688 8.0752Z" fill="#98A2B3"/>
</svg>
