<svg width="15" height="16" viewBox="0 0 15 16" fill="none" xmlns="http://www.w3.org/2000/svg">
<path d="M13.8896 0H1.10742C0.495117 0 0 0.515625 0 1.15313V14.8438C0 15.4813 0.495117 16 1.10742 16H13.8896C14.502 16 15 15.4813 15 14.8469V1.15313C15 0.515625 14.502 0 13.8896 0ZM4.4502 13.6344H2.22363V5.99687H4.4502V13.6344ZM3.33691 4.95625C2.62207 4.95625 2.04492 4.34062 2.04492 3.58125C2.04492 2.82188 2.62207 2.20625 3.33691 2.20625C4.04883 2.20625 4.62598 2.82188 4.62598 3.58125C4.62598 4.3375 4.04883 4.95625 3.33691 4.95625ZM12.7822 13.6344H10.5586V9.92188C10.5586 9.0375 10.5439 7.89687 9.40137 7.89687C8.24414 7.89687 8.06836 8.8625 8.06836 9.85938V13.6344H5.84766V5.99687H7.98047V7.04063H8.00977C8.30566 6.44063 9.03223 5.80625 10.1133 5.80625C12.3662 5.80625 12.7822 7.3875 12.7822 9.44375V13.6344Z" fill="#98A2B3"/>
</svg>
