<svg width="23" height="23" viewBox="0 0 23 23" fill="none" xmlns="http://www.w3.org/2000/svg">
<path fill-rule="evenodd" clip-rule="evenodd" d="M11.5 23C17.8513 23 23 17.8513 23 11.5C23 5.14873 17.8513 0 11.5 0C5.14873 0 0 5.14873 0 11.5C0 13.5625 0.542962 15.4982 1.49375 17.1719L0 23L6.00864 21.6067C7.64042 22.4952 9.51125 23 11.5 23ZM11.5 21.2308C16.8742 21.2308 21.2308 16.8742 21.2308 11.5C21.2308 6.12584 16.8742 1.76923 11.5 1.76923C6.12584 1.76923 1.76923 6.12584 1.76923 11.5C1.76923 13.575 2.4187 15.4983 3.52544 17.0777L2.65385 20.3462L5.97994 19.5146C7.5484 20.597 9.45018 21.2308 11.5 21.2308Z" fill="#101828"/>
<path d="M8.62502 6.16085C8.35159 5.61166 7.93215 5.66028 7.50841 5.66028C6.75113 5.66028 5.57031 6.56737 5.57031 8.25555C5.57031 9.6391 6.17998 11.1536 8.23434 13.4192C10.217 15.6056 12.822 16.7367 14.9847 16.6982C17.1473 16.6597 17.5923 14.7986 17.5923 14.1701C17.5923 13.8916 17.4194 13.7526 17.3003 13.7148C16.5633 13.3611 15.2041 12.7021 14.8948 12.5783C14.5855 12.4545 14.4241 12.6219 14.3237 12.713C14.0432 12.9803 13.4872 13.768 13.2969 13.9452C13.1065 14.1224 12.8227 14.0327 12.7046 13.9657C12.27 13.7913 11.0917 13.2672 10.1524 12.3567C8.9908 11.2306 8.92263 10.8432 8.70378 10.4983C8.52869 10.2225 8.65717 10.0532 8.72128 9.97921C8.97156 9.69042 9.31714 9.24458 9.47212 9.02301C9.62709 8.80145 9.50406 8.46506 9.43024 8.25555C9.11274 7.35449 8.84376 6.6002 8.62502 6.16085Z" fill="#101828"/>
</svg>
